# Blender v3.2.1 OBJ File: 'RedBoss.blend'
# www.blender.org
mtllib RedBoss.mtl
o Plane
v -1.000000 0.000000 1.000000
v 1.000000 0.000000 1.000000
v -1.000000 0.000000 -1.000000
v 1.000000 0.000000 -1.000000
v -0.026863 2.419591 -0.026863
v -0.026863 2.419591 0.026863
v 0.026863 2.419591 0.026863
v 0.026863 2.419591 -0.026863
v -0.026863 -2.419591 -0.026863
v -0.026863 -2.419591 0.026863
v 0.026863 -2.419591 0.026863
v 0.026863 -2.419591 -0.026863
vt 0.000000 0.000000
vt 0.000000 1.000000
vt 1.000000 1.000000
vt 1.000000 0.000000
vt 0.000000 0.000000
vt 1.000000 0.000000
vt 1.000000 1.000000
vt 0.000000 1.000000
vt 0.000000 0.000000
vt 0.000000 1.000000
vt 1.000000 1.000000
vt 1.000000 0.000000
vn 0.0000 -1.0000 0.0000
vn 0.0000 1.0000 0.0000
vn 0.9278 0.3731 0.0000
vn -0.9278 0.3731 0.0000
vn 0.0000 0.3731 -0.9278
vn 0.0000 0.3731 0.9278
vn 0.9278 -0.3731 0.0000
vn -0.9278 -0.3731 0.0000
vn 0.0000 -0.3731 -0.9278
vn 0.0000 -0.3731 0.9278
usemtl None
s off
f 1/1/1 3/2/1 4/3/1 2/4/1
f 6/5/2 7/6/2 8/7/2 5/8/2
f 2/4/3 4/3/3 8/7/3 7/6/3
f 3/2/4 1/1/4 6/5/4 5/8/4
f 4/3/5 3/2/5 5/8/5 8/7/5
f 1/1/6 2/4/6 7/6/6 6/5/6
f 10/9/1 9/10/1 12/11/1 11/12/1
f 2/4/7 11/12/7 12/11/7 4/3/7
f 3/2/8 9/10/8 10/9/8 1/1/8
f 4/3/9 12/11/9 9/10/9 3/2/9
f 1/1/10 10/9/10 11/12/10 2/4/10
